<svg width="62" height="71" viewBox="0 0 62 71" fill="none" xmlns="http://www.w3.org/2000/svg">
<path d="M6.10461 64.4475C4.42585 64.4475 2.98872 63.8165 1.79323 62.5544C0.597744 61.2923 0 59.7751 0 58.0028V12.8895C0 11.1172 0.597744 9.6 1.79323 8.3379C2.98872 7.0758 4.42585 6.44475 6.10461 6.44475H18.9243C19.5856 4.51133 20.6921 2.95385 22.2437 1.77231C23.7953 0.590769 25.5376 0 27.4708 0C29.4039 0 31.1463 0.590769 32.6978 1.77231C34.2494 2.95385 35.3559 4.51133 36.0172 6.44475H48.8369C50.5157 6.44475 51.9528 7.0758 53.1483 8.3379C54.3438 9.6 54.9415 11.1172 54.9415 12.8895V34.4794C53.975 33.9961 52.983 33.5799 51.9655 33.2308C50.9481 32.8817 49.9052 32.6266 48.8369 32.4655V12.8895H6.10461V58.0028H24.5711C24.7237 59.1843 24.9653 60.3122 25.296 61.3863C25.6267 62.4604 26.0209 63.4808 26.4788 64.4475H6.10461ZM6.10461 54.7804V58.0028V12.8895V32.4655V32.2238V54.7804ZM12.2092 51.558H24.6474C24.8 50.4302 25.0416 49.3292 25.3723 48.2551C25.703 47.181 26.0718 46.1337 26.4788 45.1133H12.2092V51.558ZM12.2092 38.6685H30.8283C32.4562 37.0573 34.2749 35.7147 36.2843 34.6406C38.2937 33.5664 40.4431 32.8414 42.7323 32.4655V32.2238H12.2092V38.6685ZM12.2092 25.779H42.7323V19.3343H12.2092V25.779ZM29.1114 9.78797C29.5438 9.33147 29.76 8.75412 29.76 8.05594C29.76 7.35776 29.5438 6.78042 29.1114 6.32392C28.679 5.86741 28.1321 5.63916 27.4708 5.63916C26.8094 5.63916 26.2626 5.86741 25.8302 6.32392C25.3977 6.78042 25.1815 7.35776 25.1815 8.05594C25.1815 8.75412 25.3977 9.33147 25.8302 9.78797C26.2626 10.2445 26.8094 10.4727 27.4708 10.4727C28.1321 10.4727 28.679 10.2445 29.1114 9.78797ZM45.7846 70.8923C41.5623 70.8923 37.9631 69.3214 34.9871 66.1796C32.0111 63.0378 30.5231 59.238 30.5231 54.7804C30.5231 50.3228 32.0111 46.5231 34.9871 43.3813C37.9631 40.2394 41.5623 38.6685 45.7846 38.6685C50.007 38.6685 53.6061 40.2394 56.5821 43.3813C59.5581 46.5231 61.0461 50.3228 61.0461 54.7804C61.0461 59.238 59.5581 63.0378 56.5821 66.1796C53.6061 69.3214 50.007 70.8923 45.7846 70.8923ZM44.2585 64.4475H47.3108V56.3916H54.9415V53.1692H47.3108V45.1133H44.2585V53.1692H36.6277V56.3916H44.2585V64.4475Z" fill="#205FA3"/>
</svg>
